<svg id="Capa_1" data-name="Capa 1" xmlns="http://www.w3.org/2000/svg" viewBox="0 0 330.94 88.16"><defs><style>.cls-1{fill:#fff;}</style></defs><title>LOGO</title><path class="cls-1" d="M235.12,50.77c-.27-.73-.53-1.44-.77-2.14s-.49-1.41-.75-2.13H226l-1.52,4.27h-2.43q1-2.66,1.8-4.91c.57-1.5,1.12-2.93,1.66-4.28s1.07-2.64,1.6-3.87,1.08-2.45,1.66-3.65H231c.58,1.2,1.13,2.42,1.66,3.65s1.07,2.52,1.6,3.87,1.09,2.78,1.66,4.28,1.16,3.14,1.8,4.91Zm-2.2-6.2c-.51-1.4-1-2.75-1.53-4.06s-1-2.57-1.57-3.77c-.57,1.2-1.1,2.46-1.61,3.77s-1,2.66-1.5,4.06Z" transform="translate(-14.83 -5.71)"/><path class="cls-1" d="M238.54,44.52a8,8,0,0,1,.48-2.9,6.12,6.12,0,0,1,1.28-2.06,5.1,5.1,0,0,1,1.83-1.23,5.64,5.64,0,0,1,2.13-.41,4.81,4.81,0,0,1,3.88,1.58,7.25,7.25,0,0,1,1.35,4.81v.37a2.77,2.77,0,0,1,0,.42h-8.58a4.63,4.63,0,0,0,1.13,3,4.18,4.18,0,0,0,3.09,1,8,8,0,0,0,2-.21,6.78,6.78,0,0,0,1.22-.39l.31,1.88a6.87,6.87,0,0,1-1.44.45,9.59,9.59,0,0,1-2.32.25,7.34,7.34,0,0,1-2.83-.5,5.3,5.3,0,0,1-2-1.36,5.67,5.67,0,0,1-1.14-2.06A8.73,8.73,0,0,1,238.54,44.52Zm8.61-1.23a3.74,3.74,0,0,0-.76-2.49,2.62,2.62,0,0,0-2.16-1,3,3,0,0,0-1.36.3,3.1,3.1,0,0,0-1,.79,3.58,3.58,0,0,0-.64,1.11,5.59,5.59,0,0,0-.3,1.27Z" transform="translate(-14.83 -5.71)"/><path class="cls-1" d="M257.13,38c.19,0,.41,0,.66,0l.74.1.66.12a2.94,2.94,0,0,1,.45.11l-.39,2c-.18-.06-.47-.14-.88-.23a7.65,7.65,0,0,0-1.58-.13,5.74,5.74,0,0,0-1.24.13l-.81.18V50.77H252.5v-12a15.9,15.9,0,0,1,2-.54A12.53,12.53,0,0,1,257.13,38Z" transform="translate(-14.83 -5.71)"/><path class="cls-1" d="M272.65,44.5a7.89,7.89,0,0,1-.43,2.7A6.1,6.1,0,0,1,271,49.27a5.23,5.23,0,0,1-1.87,1.34,6.16,6.16,0,0,1-4.72,0,5.31,5.31,0,0,1-1.87-1.34,6.27,6.27,0,0,1-1.22-2.07,8.66,8.66,0,0,1,0-5.39,6.12,6.12,0,0,1,1.22-2.08,5.31,5.31,0,0,1,1.87-1.34,6.16,6.16,0,0,1,4.72,0A5.23,5.23,0,0,1,271,39.73a6,6,0,0,1,1.22,2.08A8,8,0,0,1,272.65,44.5Zm-2.33,0a5.33,5.33,0,0,0-1-3.36,3.31,3.31,0,0,0-5.18,0,5.39,5.39,0,0,0-.95,3.36,5.43,5.43,0,0,0,.95,3.36,3.32,3.32,0,0,0,5.18,0A5.37,5.37,0,0,0,270.32,44.5Z" transform="translate(-14.83 -5.71)"/><path class="cls-1" d="M286.61,44.52a8.8,8.8,0,0,1-.37,2.63,5.78,5.78,0,0,1-1.1,2.07,4.92,4.92,0,0,1-1.77,1.35,5.56,5.56,0,0,1-2.4.49,6,6,0,0,1-1.92-.29,6.53,6.53,0,0,1-1.24-.56v5h-2.24V38.62c.53-.13,1.19-.27,2-.43a15.07,15.07,0,0,1,2.76-.23,7.09,7.09,0,0,1,2.6.46,5.53,5.53,0,0,1,2,1.31,5.65,5.65,0,0,1,1.27,2.06A8.06,8.06,0,0,1,286.61,44.52Zm-2.34,0a4.82,4.82,0,0,0-1.08-3.37A3.73,3.73,0,0,0,280.3,40a12.83,12.83,0,0,0-1.58.07,6,6,0,0,0-.91.17v7.9a4.76,4.76,0,0,0,2.87,1,3.59,3.59,0,0,0,1.65-.35,3.1,3.1,0,0,0,1.13-1,4.33,4.33,0,0,0,.62-1.45A7.89,7.89,0,0,0,284.27,44.52Z" transform="translate(-14.83 -5.71)"/><path class="cls-1" d="M299.53,50.41c-.51.12-1.19.26-2,.4a17,17,0,0,1-2.93.22,6.24,6.24,0,0,1-2.44-.42,3.93,3.93,0,0,1-1.59-1.19,5,5,0,0,1-.87-1.82,9.89,9.89,0,0,1-.26-2.33v-7h2.24v6.56a5.64,5.64,0,0,0,.73,3.28,2.8,2.8,0,0,0,2.43,1c.24,0,.49,0,.75,0s.49,0,.72-.06l.61-.07a1.6,1.6,0,0,0,.4-.09V38.23h2.24Z" transform="translate(-14.83 -5.71)"/><path class="cls-1" d="M302.48,44.52a8,8,0,0,1,.48-2.9,6,6,0,0,1,1.28-2.06,5.1,5.1,0,0,1,1.83-1.23,5.59,5.59,0,0,1,2.12-.41,4.8,4.8,0,0,1,3.88,1.58,7.25,7.25,0,0,1,1.35,4.81v.37c0,.15,0,.29,0,.42h-8.59a4.63,4.63,0,0,0,1.14,3,4.15,4.15,0,0,0,3.08,1,8,8,0,0,0,2-.21,6.52,6.52,0,0,0,1.22-.39l.31,1.88a6.94,6.94,0,0,1-1.43.45,9.73,9.73,0,0,1-2.33.25,7.34,7.34,0,0,1-2.83-.5,5.3,5.3,0,0,1-2-1.36,5.67,5.67,0,0,1-1.14-2.06A8.73,8.73,0,0,1,302.48,44.52Zm8.6-1.23a3.74,3.74,0,0,0-.76-2.49,2.61,2.61,0,0,0-2.15-1,3,3,0,0,0-1.37.3,3.21,3.21,0,0,0-1,.79,3.79,3.79,0,0,0-.64,1.11,5.59,5.59,0,0,0-.3,1.27Z" transform="translate(-14.83 -5.71)"/><path class="cls-1" d="M321.06,38c.2,0,.42,0,.67,0l.73.1.66.12a2.94,2.94,0,0,1,.45.11l-.39,2a8.38,8.38,0,0,0-.88-.23,7.59,7.59,0,0,0-1.58-.13,5.81,5.81,0,0,0-1.24.13l-.8.18V50.77h-2.25v-12a15.9,15.9,0,0,1,2-.54A12.59,12.59,0,0,1,321.06,38Z" transform="translate(-14.83 -5.71)"/><path class="cls-1" d="M327.62,38.23h4.75v1.88h-4.75V45.9a7.39,7.39,0,0,0,.14,1.55,2.36,2.36,0,0,0,.44,1,1.57,1.57,0,0,0,.72.49,3.12,3.12,0,0,0,1,.14,4.85,4.85,0,0,0,1.63-.22l.86-.33.43,1.86a8.73,8.73,0,0,1-1.18.42,6.69,6.69,0,0,1-1.93.25,6,6,0,0,1-2.11-.32,3.18,3.18,0,0,1-1.34-1,4,4,0,0,1-.71-1.6,11.11,11.11,0,0,1-.2-2.21V34.73l2.24-.38Z" transform="translate(-14.83 -5.71)"/><path class="cls-1" d="M345.7,44.5a7.89,7.89,0,0,1-.43,2.7,6.27,6.27,0,0,1-1.22,2.07,5.31,5.31,0,0,1-1.87,1.34,6.16,6.16,0,0,1-4.72,0,5.23,5.23,0,0,1-1.87-1.34,6.1,6.1,0,0,1-1.22-2.07,8.66,8.66,0,0,1,0-5.39,6,6,0,0,1,1.22-2.08,5.23,5.23,0,0,1,1.87-1.34,6.16,6.16,0,0,1,4.72,0,5.31,5.31,0,0,1,1.87,1.34,6.12,6.12,0,0,1,1.22,2.08A8,8,0,0,1,345.7,44.5Zm-2.34,0a5.39,5.39,0,0,0-.95-3.36,3.31,3.31,0,0,0-5.18,0,5.33,5.33,0,0,0-1,3.36,5.37,5.37,0,0,0,1,3.36,3.32,3.32,0,0,0,5.18,0A5.43,5.43,0,0,0,343.36,44.5Z" transform="translate(-14.83 -5.71)"/><path class="cls-1" d="M226.61,69.79a4.06,4.06,0,0,0,2.39-.56,1.85,1.85,0,0,0,.74-1.56,2,2,0,0,0-.25-1,2.64,2.64,0,0,0-.72-.78,5.89,5.89,0,0,0-1.15-.65,16.2,16.2,0,0,0-1.54-.59q-.87-.31-1.68-.69A5.81,5.81,0,0,1,223,63a4.25,4.25,0,0,1-1-1.33,4.18,4.18,0,0,1-.37-1.85,4.35,4.35,0,0,1,1.57-3.56A6.49,6.49,0,0,1,227.45,55a10.23,10.23,0,0,1,2.79.35,8.38,8.38,0,0,1,1.91.76l-.94,2.46a6.88,6.88,0,0,0-1.79-.7,8.38,8.38,0,0,0-2-.24,3.15,3.15,0,0,0-1.92.51,1.65,1.65,0,0,0-.69,1.42,1.88,1.88,0,0,0,.23.95,2.29,2.29,0,0,0,.65.71,5.74,5.74,0,0,0,1,.58,13.27,13.27,0,0,0,1.24.51c.79.29,1.49.58,2.11.88a5.84,5.84,0,0,1,1.57,1.06,4.16,4.16,0,0,1,1,1.44,5.3,5.3,0,0,1,.34,2,4.15,4.15,0,0,1-1.6,3.5,7.54,7.54,0,0,1-4.69,1.25,12.13,12.13,0,0,1-1.89-.14A10.6,10.6,0,0,1,223.2,72a10.08,10.08,0,0,1-1.15-.4,8.21,8.21,0,0,1-.77-.37l.89-2.49a10.43,10.43,0,0,0,1.76.73A8.73,8.73,0,0,0,226.61,69.79Z" transform="translate(-14.83 -5.71)"/><path class="cls-1" d="M239.39,59.13a7.16,7.16,0,0,1,2.43.36,3.9,3.9,0,0,1,1.58,1,3.7,3.7,0,0,1,.84,1.58,7.62,7.62,0,0,1,.26,2v7.65c-.45.09-1.13.21-2,.35a21.77,21.77,0,0,1-3.07.2,9,9,0,0,1-2.08-.22,4.17,4.17,0,0,1-1.6-.7,3.27,3.27,0,0,1-1-1.25,4.32,4.32,0,0,1-.37-1.9,3.71,3.71,0,0,1,.42-1.84,3.41,3.41,0,0,1,1.15-1.21,4.89,4.89,0,0,1,1.67-.68,9.27,9.27,0,0,1,2-.2,9,9,0,0,1,1,.06,8.56,8.56,0,0,1,1.14.2V64.1a3.85,3.85,0,0,0-.12-1,2,2,0,0,0-.43-.8,1.91,1.91,0,0,0-.79-.55,3.63,3.63,0,0,0-1.24-.19,10.62,10.62,0,0,0-1.86.15,8.37,8.37,0,0,0-1.37.33l-.36-2.36a10.17,10.17,0,0,1,1.61-.38A12.53,12.53,0,0,1,239.39,59.13ZM239.63,70a10.51,10.51,0,0,0,2.05-.15V66.63a4.47,4.47,0,0,0-.7-.14,6.36,6.36,0,0,0-1-.08,6.48,6.48,0,0,0-1,.08,2.72,2.72,0,0,0-.89.26,1.61,1.61,0,0,0-.64.54,1.85,1.85,0,0,0,.41,2.32A3.4,3.4,0,0,0,239.63,70Z" transform="translate(-14.83 -5.71)"/><path class="cls-1" d="M258.19,71.67q-.84.21-2.19.45a18.15,18.15,0,0,1-3,.22,6.51,6.51,0,0,1-2.54-.43,4.07,4.07,0,0,1-1.64-1.2,4.82,4.82,0,0,1-.88-1.85,9.6,9.6,0,0,1-.27-2.35V59.45h2.92v6.6a5.33,5.33,0,0,0,.59,2.89,2.32,2.32,0,0,0,2.06.87,10.85,10.85,0,0,0,1.12,0,5.3,5.3,0,0,0,.88-.12V59.45h2.92Z" transform="translate(-14.83 -5.71)"/><path class="cls-1" d="M261,65.76a7.69,7.69,0,0,1,.44-2.61A6.07,6.07,0,0,1,262.64,61a5.67,5.67,0,0,1,2-1.4,6.43,6.43,0,0,1,2.61-.51,8.87,8.87,0,0,1,3.37.65L270,62.17a7.44,7.44,0,0,0-1.15-.36,6,6,0,0,0-1.36-.15,3.2,3.2,0,0,0-2.61,1.08,4.61,4.61,0,0,0-.89,3,4.71,4.71,0,0,0,.85,3,3.37,3.37,0,0,0,2.84,1.1,7.19,7.19,0,0,0,1.47-.15,6.31,6.31,0,0,0,1.26-.36l.41,2.41a5.89,5.89,0,0,1-1.46.43,10.33,10.33,0,0,1-2,.2,7.26,7.26,0,0,1-2.8-.5,5.25,5.25,0,0,1-2-1.37,5.82,5.82,0,0,1-1.17-2.1A8.59,8.59,0,0,1,261,65.76Z" transform="translate(-14.83 -5.71)"/><path class="cls-1" d="M272.13,65.81a7.94,7.94,0,0,1,.49-2.92,6.21,6.21,0,0,1,1.31-2.08,5.6,5.6,0,0,1,1.88-1.26,5.86,5.86,0,0,1,2.17-.42A5.17,5.17,0,0,1,282,60.75a7,7,0,0,1,1.46,4.82c0,.16,0,.34,0,.54s0,.38,0,.54h-8.32A3.32,3.32,0,0,0,276.21,69a4.07,4.07,0,0,0,2.76.84,8.9,8.9,0,0,0,1.94-.2,7,7,0,0,0,1.39-.41l.38,2.39a3.86,3.86,0,0,1-.66.25c-.28.09-.6.17-1,.25s-.75.13-1.17.18-.85.07-1.28.07a7.7,7.7,0,0,1-2.89-.5,5.36,5.36,0,0,1-2-1.37,5.73,5.73,0,0,1-1.18-2.07A8.42,8.42,0,0,1,272.13,65.81Zm8.46-1.3a4,4,0,0,0-.17-1.15,2.74,2.74,0,0,0-.5-.94,2.29,2.29,0,0,0-.79-.62,2.46,2.46,0,0,0-1.12-.23,2.57,2.57,0,0,0-1.18.25,2.7,2.7,0,0,0-.86.66,3.24,3.24,0,0,0-.54.94,5.27,5.27,0,0,0-.27,1.09Z" transform="translate(-14.83 -5.71)"/><path class="cls-1" d="M296.67,72.05q-1.82-3.9-3.49-8.17c-1.11-2.84-2.16-5.69-3.12-8.53h3.35c.39,1.12.78,2.27,1.19,3.44s.8,2.33,1.2,3.46.81,2.23,1.21,3.3.8,2,1.19,2.91c.37-.88.75-1.85,1.16-2.9s.81-2.15,1.22-3.29.82-2.3,1.22-3.48.79-2.32,1.16-3.44h3.25c-1,2.84-2,5.69-3.14,8.53s-2.28,5.57-3.49,8.17Z" transform="translate(-14.83 -5.71)"/><path class="cls-1" d="M311.25,55.76a1.65,1.65,0,0,1-.53,1.3,1.8,1.8,0,0,1-1.25.48,1.83,1.83,0,0,1-1.28-.48,1.69,1.69,0,0,1-.53-1.3,1.72,1.72,0,0,1,.53-1.33,1.83,1.83,0,0,1,1.28-.48,1.8,1.8,0,0,1,1.25.48A1.69,1.69,0,0,1,311.25,55.76Zm-.31,16.29H308V59.45h2.92Z" transform="translate(-14.83 -5.71)"/><path class="cls-1" d="M313.73,65.81a7.94,7.94,0,0,1,.5-2.92,6.21,6.21,0,0,1,1.31-2.08,5.6,5.6,0,0,1,1.88-1.26,5.86,5.86,0,0,1,2.17-.42,5.21,5.21,0,0,1,4.07,1.62,7,7,0,0,1,1.45,4.82c0,.16,0,.34,0,.54s0,.38,0,.54h-8.32A3.32,3.32,0,0,0,317.82,69a4.07,4.07,0,0,0,2.76.84,8.9,8.9,0,0,0,1.94-.2,7,7,0,0,0,1.39-.41l.38,2.39a3.86,3.86,0,0,1-.66.25c-.28.09-.6.17-1,.25s-.75.13-1.17.18-.85.07-1.28.07a7.7,7.7,0,0,1-2.89-.5,5.36,5.36,0,0,1-2-1.37,5.73,5.73,0,0,1-1.18-2.07A8.42,8.42,0,0,1,313.73,65.81Zm8.47-1.3a4,4,0,0,0-.17-1.15,2.74,2.74,0,0,0-.5-.94,2.29,2.29,0,0,0-.79-.62,2.46,2.46,0,0,0-1.12-.23,2.57,2.57,0,0,0-1.18.25,2.7,2.7,0,0,0-.86.66,3.24,3.24,0,0,0-.54.94,5.27,5.27,0,0,0-.27,1.09Z" transform="translate(-14.83 -5.71)"/><path class="cls-1" d="M326.37,76.54c-.21,0-.5,0-.88-.06a4,4,0,0,1-1-.23l.38-2.39a4.36,4.36,0,0,0,1.28.17,1.6,1.6,0,0,0,1.42-.59,3,3,0,0,0,.41-1.77V59.45h2.92V71.72a5,5,0,0,1-1.17,3.64A4.55,4.55,0,0,1,326.37,76.54Zm4.84-20.78a1.65,1.65,0,0,1-.53,1.3,1.8,1.8,0,0,1-1.25.48,1.83,1.83,0,0,1-1.28-.48,1.69,1.69,0,0,1-.53-1.3,1.72,1.72,0,0,1,.53-1.33,1.83,1.83,0,0,1,1.28-.48,1.8,1.8,0,0,1,1.25.48A1.69,1.69,0,0,1,331.21,55.76Z" transform="translate(-14.83 -5.71)"/><path class="cls-1" d="M345.77,65.74a8.08,8.08,0,0,1-.43,2.72,6.07,6.07,0,0,1-1.23,2.1,5.48,5.48,0,0,1-1.92,1.35,6.57,6.57,0,0,1-4.93,0,5.49,5.49,0,0,1-1.9-1.35,6.25,6.25,0,0,1-1.24-2.1,7.84,7.84,0,0,1-.45-2.72,7.74,7.74,0,0,1,.45-2.71,6.06,6.06,0,0,1,1.25-2.09,5.64,5.64,0,0,1,1.92-1.34,6.23,6.23,0,0,1,2.43-.47,6.33,6.33,0,0,1,2.45.47,5.45,5.45,0,0,1,1.92,1.34A6.2,6.2,0,0,1,345.33,63,7.74,7.74,0,0,1,345.77,65.74Zm-3,0a5,5,0,0,0-.8-3,2.86,2.86,0,0,0-4.51,0,4.9,4.9,0,0,0-.81,3,5,5,0,0,0,.81,3,2.85,2.85,0,0,0,4.51,0A5.07,5.07,0,0,0,342.78,65.74Z" transform="translate(-14.83 -5.71)"/><path class="cls-1" d="M121.55,69.63l-8-20.47h0l-1-2.45c-2.72-7,1.7-13.09,8.4-12.9l20.5.15-12-28.19h-35c-2.68.13-9.26,3.87-5.39,12.75l4.74,11.42,7.78,19.23,1.23,3.71C105.21,60,101,65.92,94.38,65.76L74,65.6,85.88,93.8h35c2.69-.13,9.26-3.87,5.4-12.75Z" transform="translate(-14.83 -5.71)"/><path class="cls-1" d="M180.65,5.71,161.29,50.83c-2.52,6-10.12,6-12.64,0l-3-7.25H133.28L152.61,89.4c2.52,6,10.12,6,12.64,0L200.93,5.71Z" transform="translate(-14.83 -5.71)"/><path class="cls-1" d="M82.24,55.91,63,10.24c-2.52-6-10.12-6-12.64,0L14.83,93.87H35.11L54.35,48.92c2.52-6,10.12-6,12.64,0l2.91,7Z" transform="translate(-14.83 -5.71)"/></svg>